<svg width="35" height="35" viewBox="0 0 35 35" fill="none" xmlns="http://www.w3.org/2000/svg">
<path d="M29.0334 2.85165C26.8602 1.52235 24.5072 0.557545 22.0562 9.86212e-05C22.0347 -0.000803162 22.0133 0.00448846 21.9936 0.0156015C21.9738 0.0267146 21.9561 0.0433792 21.9418 0.0644198C21.6477 0.771947 21.3045 1.69388 21.0758 2.4014C18.4761 1.88684 15.8322 1.88684 13.2325 2.4014C13.0038 1.67244 12.6606 0.771947 12.3501 0.0644198C12.3338 0.0215393 12.2848 9.86212e-05 12.2358 9.86212e-05C9.78474 0.557545 7.4481 1.52235 5.25852 2.85165C5.24218 2.85165 5.22584 2.87309 5.2095 2.89453C0.764987 11.6207 -0.460524 20.111 0.144061 28.5156C0.144061 28.5585 0.160401 28.6014 0.193082 28.6228C3.13431 31.4529 5.96115 33.1681 8.75532 34.3045C8.80434 34.3259 8.85336 34.3045 8.8697 34.2616C9.5233 33.0824 10.1115 31.8388 10.6181 30.531C10.6508 30.4452 10.6181 30.3595 10.5527 30.338C9.62134 29.8663 8.73897 29.3089 7.87295 28.6657C7.80759 28.6228 7.80759 28.4942 7.85661 28.4298C8.03635 28.2583 8.21609 28.0654 8.39583 27.8938C8.42851 27.851 8.47753 27.851 8.51021 27.8724C14.1312 31.2385 20.1934 31.2385 25.7491 27.8724C25.7817 27.851 25.8308 27.851 25.8634 27.8938C26.0432 28.0868 26.2229 28.2583 26.4027 28.4513C26.468 28.5156 26.468 28.6442 26.3863 28.6871C25.5366 29.3518 24.6379 29.8878 23.7065 30.3595C23.6412 30.3809 23.6248 30.4881 23.6412 30.5524C24.1641 31.8603 24.7523 33.1038 25.3896 34.283C25.4386 34.3045 25.4876 34.3259 25.5366 34.3045C28.3471 33.1681 31.174 31.4529 34.1152 28.6228C34.1479 28.6014 34.1642 28.5585 34.1642 28.5156C34.8832 18.8032 32.9714 10.3772 29.0988 2.89453C29.0824 2.87309 29.0661 2.85165 29.0334 2.85165ZM11.4678 23.3914C9.78474 23.3914 8.37949 21.3546 8.37949 18.8461C8.37949 16.3376 9.75206 14.3007 11.4678 14.3007C13.1998 14.3007 14.5724 16.359 14.5561 18.8461C14.5561 21.3546 13.1835 23.3914 11.4678 23.3914ZM22.8569 23.3914C21.1738 23.3914 19.7686 21.3546 19.7686 18.8461C19.7686 16.3376 21.1411 14.3007 22.8569 14.3007C24.5889 14.3007 25.9615 16.359 25.9451 18.8461C25.9451 21.3546 24.5889 23.3914 22.8569 23.3914Z" fill="#E6E9EC"/>
</svg>
