<svg width="35" height="35" viewBox="0 0 35 35" fill="none" xmlns="http://www.w3.org/2000/svg">
<path d="M9.95087 0H24.3625C29.8526 0 34.3134 4.46074 34.3134 9.95087V24.3625C34.3134 27.0016 33.265 29.5327 31.3988 31.3988C29.5327 33.265 27.0016 34.3134 24.3625 34.3134H9.95087C4.46074 34.3134 0 29.8526 0 24.3625V9.95087C0 7.31174 1.04839 4.78069 2.91454 2.91454C4.78069 1.04839 7.31174 0 9.95087 0ZM9.60774 3.43133C7.96965 3.43133 6.39866 4.08206 5.24036 5.24036C4.08206 6.39866 3.43133 7.96965 3.43133 9.60774V24.7056C3.43133 28.1198 6.19356 30.882 9.60774 30.882H24.7056C26.3437 30.882 27.9147 30.2313 29.073 29.073C30.2313 27.9147 30.882 26.3437 30.882 24.7056V9.60774C30.882 6.19356 28.1198 3.43133 24.7056 3.43133H9.60774ZM26.1639 6.00484C26.7327 6.00484 27.2782 6.23078 27.6804 6.63297C28.0826 7.03516 28.3085 7.58064 28.3085 8.14942C28.3085 8.7182 28.0826 9.26368 27.6804 9.66587C27.2782 10.0681 26.7327 10.294 26.1639 10.294C25.5951 10.294 25.0497 10.0681 24.6475 9.66587C24.2453 9.26368 24.0193 8.7182 24.0193 8.14942C24.0193 7.58064 24.2453 7.03516 24.6475 6.63297C25.0497 6.23078 25.5951 6.00484 26.1639 6.00484ZM17.1567 8.57834C19.4318 8.57834 21.6137 9.48213 23.2225 11.0909C24.8312 12.6996 25.735 14.8816 25.735 17.1567C25.735 19.4318 24.8312 21.6137 23.2225 23.2225C21.6137 24.8312 19.4318 25.735 17.1567 25.735C14.8816 25.735 12.6996 24.8312 11.0909 23.2225C9.48212 21.6137 8.57834 19.4318 8.57834 17.1567C8.57834 14.8816 9.48212 12.6996 11.0909 11.0909C12.6996 9.48213 14.8816 8.57834 17.1567 8.57834ZM17.1567 12.0097C15.7916 12.0097 14.4824 12.5519 13.5172 13.5172C12.5519 14.4824 12.0097 15.7916 12.0097 17.1567C12.0097 18.5217 12.5519 19.8309 13.5172 20.7962C14.4824 21.7614 15.7916 22.3037 17.1567 22.3037C18.5217 22.3037 19.8309 21.7614 20.7962 20.7962C21.7614 19.8309 22.3037 18.5217 22.3037 17.1567C22.3037 15.7916 21.7614 14.4824 20.7962 13.5172C19.8309 12.5519 18.5217 12.0097 17.1567 12.0097Z" fill="#E6E9EC"/>
</svg>
