<svg width="51" height="50" viewBox="0 0 51 50" fill="none" xmlns="http://www.w3.org/2000/svg">
<path d="M47.7092 48.6237C48.0998 49.0142 48.7329 49.0142 49.1235 48.6237C49.514 48.2332 49.514 47.6 49.1235 47.2095L47.7092 48.6237ZM39.3281 20.9558C39.3281 30.8265 31.3263 38.8284 21.4556 38.8284V40.8284C32.4309 40.8284 41.3281 31.9311 41.3281 20.9558H39.3281ZM21.4556 38.8284C11.5848 38.8284 3.58301 30.8265 3.58301 20.9558H1.58301C1.58301 31.9311 10.4803 40.8284 21.4556 40.8284V38.8284ZM3.58301 20.9558C3.58301 11.0851 11.5848 3.08325 21.4556 3.08325V1.08325C10.4803 1.08325 1.58301 9.9805 1.58301 20.9558H3.58301ZM21.4556 3.08325C31.3263 3.08325 39.3281 11.0851 39.3281 20.9558H41.3281C41.3281 9.9805 32.4309 1.08325 21.4556 1.08325V3.08325ZM34.2288 35.1433L47.7092 48.6237L49.1235 47.2095L35.6431 33.7291L34.2288 35.1433Z" fill="#2E3646"/>
</svg>
