<svg width="35" height="35" viewBox="0 0 35 35" fill="none" xmlns="http://www.w3.org/2000/svg">
<path d="M17.1567 0C7.68619 0 0 7.68619 0 17.1567C0 26.6272 7.68619 34.3134 17.1567 34.3134C26.6272 34.3134 34.3134 26.6272 34.3134 17.1567C34.3134 7.68619 26.6272 0 17.1567 0ZM25.1174 11.6665C24.86 14.3773 23.7448 20.9655 23.1787 24.0022C22.9385 25.2889 22.4581 25.7179 22.012 25.7693C21.0169 25.8551 20.262 25.1174 19.3013 24.4826C17.7915 23.4875 16.9336 22.8698 15.4753 21.9091C13.7768 20.7939 14.8748 20.1763 15.8528 19.1812C16.1101 18.9238 20.5022 14.9263 20.588 14.566C20.5999 14.5114 20.5983 14.4548 20.5834 14.401C20.5684 14.3472 20.5406 14.2978 20.5022 14.2572C20.3993 14.1714 20.262 14.2057 20.1419 14.2229C19.9875 14.2572 17.5856 15.8528 12.9018 19.0096C12.2156 19.4728 11.5979 19.713 11.0489 19.6959C10.4313 19.6787 9.2646 19.3527 8.38961 19.0611C7.30874 18.7179 6.46807 18.5292 6.53669 17.9287C6.57101 17.6199 6.99992 17.3111 7.80629 16.9851C12.816 14.8062 16.1444 13.3651 17.8086 12.6788C22.5782 10.6886 23.5561 10.3455 24.2081 10.3455C24.3453 10.3455 24.6713 10.3798 24.8772 10.5514C25.0487 10.6886 25.1002 10.8773 25.1174 11.0146C25.1002 11.1175 25.1345 11.4263 25.1174 11.6665Z" fill="#E6E9EC"/>
</svg>
