<svg width="256" height="256" viewBox="0 0 256 256" fill="none" xmlns="http://www.w3.org/2000/svg">
<path d="M230.92 212C215.69 185.67 192.22 166.79 164.83 157.84C178.378 149.775 188.904 137.485 194.792 122.858C200.679 108.231 201.603 92.076 197.42 76.8736C193.238 61.6711 184.181 48.2619 171.64 38.7053C159.098 29.1486 143.767 23.9728 128 23.9728C112.232 23.9728 96.9011 29.1486 84.36 38.7053C71.819 48.2619 62.7617 61.6711 58.5792 76.8736C54.3966 92.076 55.3201 108.231 61.2076 122.858C67.0952 137.485 77.6215 149.775 91.1698 157.84C63.7798 166.78 40.3098 185.66 25.0798 212C24.5213 212.911 24.1508 213.924 23.9903 214.98C23.8297 216.036 23.8823 217.114 24.145 218.15C24.4077 219.185 24.8751 220.157 25.5197 221.009C26.1643 221.861 26.973 222.575 27.898 223.11C28.8231 223.644 29.8458 223.988 30.9059 224.12C31.9659 224.253 33.0418 224.172 34.07 223.882C35.0982 223.592 36.058 223.1 36.8927 222.433C37.7273 221.766 38.42 220.939 38.9298 220C57.7698 187.44 91.0698 168 128 168C164.93 168 198.23 187.44 217.07 220C217.58 220.939 218.272 221.766 219.107 222.433C219.942 223.1 220.901 223.592 221.93 223.882C222.958 224.172 224.034 224.253 225.094 224.12C226.154 223.988 227.176 223.644 228.102 223.11C229.027 222.575 229.835 221.861 230.48 221.009C231.124 220.157 231.592 219.185 231.855 218.15C232.117 217.114 232.17 216.036 232.009 214.98C231.849 213.924 231.478 212.911 230.92 212ZM71.9998 96C71.9998 84.9243 75.2841 74.0972 81.4375 64.8881C87.5908 55.6789 96.3368 48.5013 106.57 44.2628C116.802 40.0243 128.062 38.9153 138.925 41.076C149.788 43.2368 159.766 48.5703 167.598 56.402C175.429 64.2338 180.763 74.212 182.924 85.075C185.085 95.9379 183.976 107.198 179.737 117.43C175.499 127.663 168.321 136.409 159.112 142.562C149.903 148.716 139.076 152 128 152C113.153 151.984 98.9179 146.079 88.4193 135.58C77.9207 125.082 72.0157 110.847 71.9998 96Z" fill="black"/>
</svg>
